<svg version="1.2" xmlns="http://www.w3.org/2000/svg" viewBox="0 0 1024 1024" width="32" height="32">
	<title>Forever Library Ethereum</title>
	<rect width="1024" height="1024" fill="#7B3FE4"/>
	<g id="logo">
		<path fill="#ffffff" d="m659.32 235.41c-4.03-1.48-20.4-5.46-38.12-4.6-17.48 0.85-36.15 5.41-45.54 9.62-47.95 21.54-72.21 51.38-76.62 91.03l-22.19 204.67c-3.41 2.16-6.84 4.33-10.15 6.43-30.77 19.44-57.34 36.23-71.4 46.84-64.28 50.48-66.68 87.55-70.26 118.76-8.32 72.69 51.45 84.11 56.7 84.97v0.08c0.29 0.04 0.48 0.05 0.78 0.09 33.77 3.75 63.94-15.63 87.83-41.88 5.24-5.17 10.58-10.88 16.03-17.44 31.03-37.39 43.25-83.43 48.42-116.44v-0.02c2.4-15.32 3.28-27.84 3.83-35.35v-0.02l8.66-80q-0.48 0.23-0.96 0.46 0.48-0.23 0.96-0.46l0.03-0.21c23.17-15.48 44.28-30.47 59.31-43.15 9.57-6.02 15.93-15.69 17.88-23.74 3.09-12.73-0.86-22.42-5.81-28.36-6.73-8.05-28.5-8.29-21.71 18.03 4.04 15.65-1.84 28.1-6.16 34.69-11.91 9.3-26.46 19.59-42.18 30.22l15.92-146.95c2.47-22.3 7.59-45.07 16.3-64.19 6.12-13.44 23.53-37.49 56.18-37.49 24.66 0 42.65 34.9 34.43 50.32-12.79 23.99 8.43 28.87 16.86 22.62 6.2-4.6 12.47-13.1 12.3-26.19-0.11-9.57-7.6-39.93-41.32-52.34zm-204.55 504.51c-1.66 16.12-22.69 30.96-34.28 35.82-12.12 5.09-37.04 5.03-35.41-8.69 1.64-13.73 16.98-156.62 16.98-156.62 0 0 1.43-8.6 4.64-12.97 2.95-4.01 6.82-9.38 13.01-13.5 14-9.32 32.11-20.77 52.07-33.39 1.24-0.79 2.52-1.59 3.79-2.39-0.03 0-19.12 175.61-20.8 191.74z"/>
	</g>
</svg>
